<svg xmlns="http://www.w3.org/2000/svg" width="14" height="13" viewBox="0 0 14 13" fill="none">
<path d="M1.25781 12.1211C1.47656 12.1211 1.66797 12.0391 1.81836 11.8887L7.14355 6.67969C7.32812 6.49512 7.41699 6.29688 7.41699 6.06445C7.41699 5.8252 7.32812 5.62012 7.14355 5.44922L1.81836 0.240232C1.66797 0.0898425 1.4834 0.0078125 1.25781 0.0078125C0.813484 0.0078125 0.464844 0.356452 0.464844 0.800782C0.464844 1.0127 0.553714 1.21777 0.704104 1.375L5.50977 6.05762L0.704104 10.7539C0.553714 10.9043 0.464844 11.1094 0.464844 11.3281C0.464844 11.7725 0.813484 12.1211 1.25781 12.1211ZM7.36914 12.1211C7.58789 12.1211 7.77246 12.0391 7.92285 11.8887L13.2549 6.67969C13.4395 6.49512 13.5283 6.29688 13.5283 6.06445C13.5283 5.8252 13.4326 5.62012 13.2549 5.44922L7.92285 0.240232C7.77246 0.0898425 7.58789 0.0078125 7.36914 0.0078125C6.9248 0.0078125 6.56934 0.356452 6.56934 0.800782C6.56934 1.0127 6.66504 1.21777 6.81543 1.375L11.6211 6.05762L6.81543 10.7539C6.66504 10.9043 6.56934 11.1094 6.56934 11.3281C6.56934 11.7725 6.9248 12.1211 7.36914 12.1211Z" fill="#37352F" fill-opacity="0.85"/>
</svg>